HIERARCHY
ROOT Hips
{
	OFFSET -0.001795 -0.223333 0.028219
	CHANNELS 6 Xposition Yposition Zposition Zrotation Yrotation Xrotation 
	JOINT LeftUpLeg
	{
		OFFSET 0.069520 -0.091406 -0.006815
		CHANNELS 3 Zrotation Yrotation Xrotation
		JOINT LeftLeg
		{
			OFFSET 0.034277 -0.375199 -0.004496
			CHANNELS 3 Zrotation Yrotation Xrotation
			JOINT LeftFoot
			{
				OFFSET -0.013596 -0.397961 -0.043693
				CHANNELS 3 Zrotation Yrotation Xrotation
				JOINT LeftToe
				{
					OFFSET 0.026358 -0.055791 0.119288
					CHANNELS 3 Zrotation Yrotation Xrotation
					End Site
					{
						OFFSET 0.000000 0.000000 0.000000
					}
				}
			}
		}
	}
	JOINT RightUpLeg
	{
		OFFSET -0.067670 -0.090522 -0.004320
		CHANNELS 3 Zrotation Yrotation Xrotation
		JOINT RightLeg
		{
			OFFSET -0.038290 -0.382569 -0.008850
			CHANNELS 3 Zrotation Yrotation Xrotation
			JOINT RightFoot
			{
				OFFSET 0.015774 -0.398415 -0.042312
				CHANNELS 3 Zrotation Yrotation Xrotation
				JOINT RightToe
				{
					OFFSET -0.025372 -0.048144 0.123348
					CHANNELS 3 Zrotation Yrotation Xrotation
					End Site
					{
						OFFSET 0.000000 0.000000 0.000000
					}
				}
			}
		}
	}
	JOINT Spine
	{
		OFFSET -0.002533 0.108963 -0.026696
		CHANNELS 3 Zrotation Yrotation Xrotation
		JOINT Spine1
		{
			OFFSET 0.005487 0.135180 0.001092
			CHANNELS 3 Zrotation Yrotation Xrotation
			JOINT Spine2
			{
				OFFSET 0.001457 0.052922 0.025425
				CHANNELS 3 Zrotation Yrotation Xrotation
				JOINT Neck
				{
					OFFSET -0.002778 0.213870 -0.042857
					CHANNELS 3 Zrotation Yrotation Xrotation
					JOINT Head
					{
						OFFSET 0.005152 0.064970 0.051349
						CHANNELS 3 Zrotation Yrotation Xrotation
						End Site
						{
							OFFSET 0.000000 0.000000 0.000000
						}
					}
				}
				JOINT LeftShoulder
				{
					OFFSET 0.078845 0.121749 -0.034090
					CHANNELS 3 Zrotation Yrotation Xrotation
					JOINT LeftArm
					{
						OFFSET 0.090977 0.030469 -0.008868
						CHANNELS 3 Zrotation Yrotation Xrotation
						JOINT LeftForeArm
						{
							OFFSET 0.259612 -0.012772 -0.027456
							CHANNELS 3 Zrotation Yrotation Xrotation
							JOINT LeftHand
							{
								OFFSET 0.249234 0.008986 -0.001171
								CHANNELS 3 Zrotation Yrotation Xrotation
								End Site
								{
									OFFSET 0.000000 0.000000 0.000000
								}
							}
						}
					}
				}
				JOINT RightShoulder
				{
					OFFSET -0.081759 0.118833 -0.038615
					CHANNELS 3 Zrotation Yrotation Xrotation
					JOINT RightArm
					{
						OFFSET -0.096012 0.032551 -0.009143
						CHANNELS 3 Zrotation Yrotation Xrotation
						JOINT RightForeArm
						{
							OFFSET -0.253742 -0.013329 -0.021401
							CHANNELS 3 Zrotation Yrotation Xrotation
							JOINT RightHand
							{
								OFFSET -0.255298 0.007772 -0.005559
								CHANNELS 3 Zrotation Yrotation Xrotation
								End Site
								{
									OFFSET 0.000000 0.000000 0.000000
								}
							}
						}
					}
				}
			}
		}
	}
}
MOTION
Frames: 6
Frame Time: 0.050000
0.003187 0.942780 0.007025 0.399952 -18.608176 6.966764 -2.115990 -0.467718 -4.108792 -1.555834 0.314790 -4.592441 -3.556275 -5.188712 7.178618 0.000000 0.000000 0.000000 2.958087 0.753834 -7.756018 -5.044646 0.560866 1.921348 7.568274 13.694017 5.185629 0.000000 0.000000 0.000000 6.401543 -0.336011 1.973239 -0.739122 0.353786 -1.011553 -5.239138 1.578175 7.135651 8.363012 -5.064272 -13.296705 0.000000 0.000000 0.000000 -16.708223 -2.288489 1.379129 -48.183149 -10.854150 -2.039172 -19.194392 -59.139232 15.748023 0.000000 0.000000 0.000000 17.086392 -6.105401 -6.333307 54.045012 -2.018658 -6.155025 15.937321 33.848394 4.924734 0.000000 0.000000 0.000000 
0.001561 0.941878 0.009211 0.356890 -19.141732 6.823152 -2.322123 -0.439141 -3.750452 -1.116463 0.267763 -4.553361 -3.218158 -4.767259 6.663868 0.000000 0.000000 0.000000 3.167781 0.702868 -7.402513 -5.320455 0.576241 1.823959 7.669274 14.256708 4.864883 0.000000 0.000000 0.000000 6.433774 -0.296714 1.596252 -0.822385 0.404254 -0.728457 -4.885262 1.839997 7.265347 8.098447 -4.861688 -13.664225 0.000000 0.000000 0.000000 -16.292830 0.025178 0.142358 -47.842138 -6.752147 -3.579871 -34.060180 -66.204324 28.510438 0.000000 0.000000 0.000000 17.649728 -6.287556 -6.593246 53.702819 -2.273440 -6.198112 16.380587 34.291834 5.112861 0.000000 0.000000 0.000000 
0.000156 0.941765 0.010255 0.381417 -19.164246 6.854339 -2.541363 -0.470520 -3.987950 -0.657382 0.201091 -4.030308 -3.121029 -4.676988 6.378016 0.000000 0.000000 0.000000 2.966981 0.707684 -7.450045 -4.886743 0.548457 2.002949 7.645341 14.298418 4.781777 0.000000 0.000000 0.000000 6.725378 -0.254021 1.083210 -0.905784 0.459011 -0.380903 -4.990055 2.334940 6.861872 8.432299 -4.985353 -13.842891 0.000000 0.000000 0.000000 -15.683033 0.731964 -0.359889 -47.987435 -4.338543 -4.416524 -49.726939 -69.440827 42.081804 0.000000 0.000000 0.000000 18.250518 -6.915540 -6.951332 54.072740 -2.533518 -6.333215 16.277577 34.470554 5.173577 0.000000 0.000000 0.000000 
-0.000957 0.942035 0.010490 0.470165 -18.131641 6.789757 -2.721179 -0.485834 -4.121095 -0.205464 0.141722 -3.748394 -3.559904 -5.426220 6.389943 0.000000 0.000000 0.000000 3.019812 0.681297 -7.208905 -4.848305 0.540677 1.883430 7.228376 13.428085 4.689838 0.000000 0.000000 0.000000 6.839776 -0.207162 0.569354 -0.606599 0.343093 0.194241 -5.338466 1.732228 6.501768 8.469808 -5.061364 -13.276562 0.000000 0.000000 0.000000 -15.925909 0.347784 -0.195630 -47.943747 -5.768599 -3.844953 -54.964102 -70.811502 47.278414 0.000000 0.000000 0.000000 18.301813 -6.741275 -6.861083 54.682612 -2.571527 -6.404645 15.284392 33.725271 4.775312 0.000000 0.000000 0.000000 
-0.002056 0.942582 0.010494 0.776221 -16.869527 6.604420 -2.853929 -0.528334 -4.519419 -0.192418 0.112870 -2.938795 -4.135318 -6.369298 6.510143 0.000000 0.000000 0.000000 2.646713 0.620973 -6.698496 -4.406246 0.461821 1.399599 6.778918 12.361220 4.720656 0.000000 0.000000 0.000000 6.989652 -0.167297 0.152222 -0.469768 0.267722 0.066376 -5.636400 1.391887 6.459697 8.677212 -5.188735 -13.098276 0.000000 0.000000 0.000000 -16.763448 -1.343180 0.626911 -48.261860 -9.003170 -2.657201 -51.214996 -71.036633 44.259396 0.000000 0.000000 0.000000 18.234719 -6.847174 -6.807137 55.407562 -2.174394 -6.349145 14.074191 32.712724 4.336874 0.000000 0.000000 0.000000 
-0.003331 0.942651 0.010933 0.828396 -15.384687 6.137147 -2.571814 -0.477564 -4.160687 -0.421361 0.132471 -2.734125 -4.837385 -7.553726 6.561273 0.000000 0.000000 0.000000 2.508131 0.524929 -5.855176 -3.844779 0.393969 1.121412 6.199414 11.178098 4.581980 0.000000 0.000000 0.000000 7.025047 -0.134790 -0.109340 0.063239 0.023620 0.466376 -6.230195 1.125888 5.984572 9.101197 -5.428551 -12.813317 0.000000 0.000000 0.000000 -17.526787 -3.084161 1.386102 -48.822014 -11.667408 -1.576442 -49.108056 -69.752224 41.304101 0.000000 0.000000 0.000000 17.844822 -6.766064 -6.499483 56.126926 -1.864950 -6.309186 13.529226 31.695504 4.122716 0.000000 0.000000 0.000000 
